#!OML:ASF F:\VICON\USERDATA\INSTALL\Justin_Nancy\Justin_Nancy.ASF
:FULLY-SPECIFIED
:DEGREES
96
root 9.94113 17.6173 -15.0783 0.694497 -6.46522 0.65379
lowerback 4.41464 1.50773 0.951209
upperback -0.217578 2.11158 1.92235
thorax -2.73673 1.05161 1.30153
lowerneck -15.7402 -4.09773 -10.2623
upperneck 25.4023 -4.33382 4.89494
head 11.1865 -2.37193 2.89802
rclavicle -3.15074e-014 1.27222e-014
rhumerus -28.2875 -10.414 -80.0427
rradius 33.1051
rwrist 5.73078
rhand -13.4395 12.2633
rfingers 7.12502
rthumb 12.6695 -17.3324
lclavicle -3.15074e-014 1.27222e-014
lhumerus -36.9458 17.9573 78.9346
lradius 19.7666
lwrist -15.4894
lhand -13.8595 27.844
lfingers 7.12502
lthumb 12.2645 57.4644
rfemur 3.83231 3.52147 24.8495
rtibia 40.4365
rfoot 1.82211 1.93443
rtoes -2.96948
lfemur -20.7729 -0.356434 -21.9963
ltibia 22.2535
lfoot -1.9917 -2.67774
ltoes 10.506
97
root 9.94397 17.6031 -14.9358 0.434583 -6.61608 1.03177
lowerback 4.62678 1.54094 0.615864
upperback -0.228732 2.13935 1.81317
thorax -2.87582 1.0694 1.36901
lowerneck -15.5225 -4.11258 -10.3156
upperneck 25.3006 -4.40602 5.04899
head 11.1161 -2.39288 2.95405
rclavicle 2.16178e-015 1.59028e-015
rhumerus -28.9674 -10.5371 -79.9014
rradius 33.3013
rwrist 5.49966
rhand -13.3518 13.6741
rfingers 7.12502
rthumb 12.754 -15.9164
lclavicle 2.16178e-015 1.59028e-015
lhumerus -36.8392 17.5426 79.0733
lradius 19.8723
lwrist -15.2249
lhand -13.6412 27.9331
lfingers 7.12502
lthumb 12.475 57.5407
rfemur 2.53862 3.30747 24.2057
rtibia 43.0969
rfoot 4.0251 2.65915
rtoes -1.02048
lfemur -19.6464 0.678909 -22.8272
ltibia 21.6947
lfoot -2.00619 -3.39373
ltoes 5.77103
98
root 9.95149 17.5925 -14.788 0.218716 -6.7772 1.41083
lowerback 4.68468 1.59142 0.350499
upperback -0.0951831 2.18663 1.68132
thorax -2.77632 1.09557 1.37895
lowerneck -15.6186 -4.20033 -10.2028
upperneck 25.0675 -4.54569 5.05141
head 11.0565 -2.44027 2.91078
rclavicle 3.0588e-014 1.35174e-014
rhumerus -29.213 -10.847 -79.774
rradius 33.291
rwrist 5.41786
rhand -12.7983 12.9888
rfingers 7.12502
rthumb 13.2876 -16.5677
lclavicle 3.0588e-014 1.35174e-014
lhumerus -36.393 17.1451 79.2998
lradius 20.0506
lwrist -15.2861
lhand -12.9817 28.7776
lfingers 7.12502
lthumb 13.1109 58.3454
rfemur 1.16347 3.05743 23.5067
rtibia 45.7158
rfoot 6.33991 3.43781
rtoes 2.96177
lfemur -18.5098 1.56499 -23.6083
ltibia 21.0662
lfoot -2.1521 -3.40877
ltoes 4.27297
99
root 9.95486 17.6395 -14.6366 0.0957304 -6.71832 1.92601
lowerback 4.61171 1.55137 -0.0934252
upperback 0.0955575 2.10152 1.53275
thorax -2.54732 1.0572 1.48577
lowerneck -16.0697 -4.28458 -10.0676
upperneck 24.9167 -4.63317 4.995
head 11.091 -2.46518 2.84699
rclavicle -2.87492e-014 -3.18055e-015
rhumerus -29.1115 -11.111 -79.7276
rradius 33.072
rwrist 5.50872
rhand -12.6506 11.8355
rfingers 7.12502
rthumb 13.43 -17.7115
lclavicle -2.87492e-014 -3.18055e-015
lhumerus -35.908 16.3334 79.8229
lradius 20.4497
lwrist -14.8248
lhand -12.6792 29.5059
lfingers 7.12502
lthumb 13.4024 59.0547
rfemur -0.212015 2.63219 22.66
rtibia 48.1209
rfoot 9.12557 3.87519
rtoes 8.33734
lfemur -17.6495 1.38291 -24.2145
ltibia 20.5334
lfoot -2.41034 -3.42692
ltoes 9.77027
100
root 9.95877 17.6636 -14.4938 -0.0673404 -6.90252 2.29864
lowerback 4.71061 1.54677 -0.456883
upperback 0.161455 2.07472 1.49492
thorax -2.54574 1.04771 1.65073
lowerneck -16.205 -4.24326 -10.0809
upperneck 24.8907 -4.54516 4.95929
head 11.0997 -2.42865 2.84731
rclavicle -3.77939e-014 -1.35174e-014
rhumerus -29.2385 -11.1581 -79.6076
rradius 32.8401
rwrist 5.65639
rhand -12.7793 12.0983
rfingers 7.12502
rthumb 13.3059 -17.4569
lclavicle -3.77939e-014 -1.35174e-014
lhumerus -35.7646 15.9528 80.1677
lradius 20.7961
lwrist -14.2467
lhand -13.1906 29.0352
lfingers 7.12502
lthumb 12.9094 58.6159
rfemur -1.57401 2.49652 22.0264
rtibia 50.5024
rfoot 12.1058 3.91099
rtoes 14.2804
lfemur -16.8053 1.14086 -24.6733
ltibia 20.1888
lfoot -2.43878 -3.29614
ltoes 7.01844
101
root 9.96514 17.6721 -14.3497 -0.30762 -7.18732 2.68295
lowerback 4.801 1.57459 -0.784691
upperback 0.223675 2.09272 1.46495
thorax -2.54363 1.06003 1.80091
lowerneck -16.3358 -4.20979 -10.1595
upperneck 25.0414 -4.44586 4.88923
head 11.1745 -2.40026 2.85012
rclavicle 1.23495e-014 -6.36111e-015
rhumerus -29.4342 -11.3067 -79.3583
rradius 32.5125
rwrist 5.97148
rhand -12.5633 12.2871
rfingers 7.12502
rthumb 13.5142 -17.2543
lclavicle 1.23495e-014 -6.36111e-015
lhumerus -35.6105 15.8191 80.4102
lradius 21.0094
lwrist -13.8312
lhand -13.5334 28.0683
lfingers 7.12502
lthumb 12.579 57.6696
rfemur -2.84186 2.44685 21.3974
rtibia 52.8298
rfoot 14.2587 4.01132
rtoes 17.7447
lfemur -15.9413 1.18021 -25.2157
ltibia 20.0898
lfoot -2.87888 -3.18475
ltoes 1.16903
102
root 9.96409 17.6761 -14.2153 -0.603295 -7.19493 2.98036
lowerback 4.97395 1.5348 -1.00894
upperback 0.390717 2.02242 1.3503
thorax -2.46944 1.02522 1.81164
lowerneck -16.6923 -4.21429 -9.91376
upperneck 25.1841 -4.44864 4.74687
head 11.2881 -2.39277 2.75387
rclavicle -1.3418e-015 -1.59028e-015
rhumerus -29.4021 -11.5551 -79.327
rradius 32.1942
rwrist 6.2017
rhand -12.3838 12.1399
rfingers 7.12502
rthumb 13.6871 -17.39
lclavicle -1.3418e-015 -1.59028e-015
lhumerus -35.1604 15.19 80.6865
lradius 21.2136
lwrist -13.3612
lhand -13.9746 27.0278
lfingers 7.12502
lthumb 12.1536 56.6548
rfemur -4.0491 2.19261 20.9429
rtibia 55.1807
rfoot 15.0688 3.76756
rtoes 18.065
lfemur -15.032 1.40157 -25.6653
ltibia 19.9181
lfoot -3.49098 -3.35918
ltoes -0.362235
103
root 9.962 17.6754 -14.0849 -0.81949 -7.04315 3.16977
lowerback 5.26627 1.40892 -1.24422
upperback 0.40661 1.84004 1.37312
thorax -2.61772 0.93787 1.97375
lowerneck -16.6719 -4.19024 -10.0062
upperneck 25.144 -4.39629 4.77225
head 11.2679 -2.37479 2.78636
rclavicle -2.46493e-014 -3.97569e-015
rhumerus -29.4007 -11.5775 -79.179
rradius 31.6244
rwrist 6.66114
rhand -13.0627 13.2391
rfingers 7.12502
rthumb 13.0327 -16.3338
lclavicle -2.46493e-014 -3.97569e-015
lhumerus -35.0767 14.6967 80.9957
lradius 21.6465
lwrist -13.1309
lhand -14.2411 26.6774
lfingers 7.12502
lthumb 11.8966 56.3195
rfemur -5.28205 1.76731 20.6206
rtibia 57.4276
rfoot 14.8867 3.03999
rtoes 15.6652
lfemur -14.298 1.23054 -25.9275
ltibia 19.6436
lfoot -3.9242 -3.51037
ltoes -0.0100064
104
root 9.96344 17.6847 -13.9475 -0.864308 -7.00871 3.2461
lowerback 5.46392 1.27342 -1.46322
upperback 0.247462 1.65115 1.56011
thorax -2.89609 0.851345 2.29853
lowerneck -16.5428 -4.03545 -10.2321
upperneck 25.2473 -4.11515 4.72662
head 11.263 -2.2787 2.85267
rclavicle 2.40778e-014 4.77083e-015
rhumerus -29.7774 -11.2916 -78.8469
rradius 31.271
rwrist 7.07437
rhand -13.8098 14.7122
rfingers 7.12502
rthumb 12.3125 -14.9053
lclavicle 2.40778e-014 4.77083e-015
lhumerus -35.275 14.5699 81.2884
lradius 22.0553
lwrist -13.3694
lhand -14.0122 27.3421
lfingers 7.12502
lthumb 12.1174 56.9712
rfemur -6.66732 1.40945 20.414
rtibia 59.4853
rfoot 13.5434 1.61325
rtoes 11.3604
lfemur -13.676 0.913143 -26.0522
ltibia 19.2939
lfoot -4.17656 -3.37259
ltoes 0.214664
105
root 9.9601 17.6969 -13.808 -0.977064 -7.0053 3.58262
lowerback 5.5836 1.20556 -1.89802
upperback 0.188707 1.53332 1.58801
thorax -3.03021 0.800908 2.57901
lowerneck -16.5286 -3.92505 -10.2951
upperneck 25.3016 -3.93262 4.68986
head 11.2658 -2.20806 2.87811
rclavicle 1.10574e-014 1.19271e-014
rhumerus -30.1622 -11.1434 -78.6393
rradius 31.2999
rwrist 7.20991
rhand -13.4246 13.2948
rfingers 7.12502
rthumb 12.6839 -16.3
lclavicle 1.10574e-014 1.19271e-014
lhumerus -35.0707 14.5054 81.4484
lradius 22.1311
lwrist -13.643
lhand -13.8067 27.8755
lfingers 7.12502
lthumb 12.3155 57.4929
rfemur -8.00498 0.997577 19.9347
rtibia 61.3843
rfoot 11.8716 0.120557
rtoes 7.3635
lfemur -12.9293 0.982351 -26.4838
ltibia 18.9768
lfoot -4.15209 -3.16564
ltoes 2.86142
106
root 9.95467 17.7042 -13.6726 -1.14333 -7.01945 3.83384
lowerback 5.61179 1.13038 -2.16276
upperback 0.221944 1.41419 1.53912
thorax -3.00984 0.744373 2.68739
lowerneck -16.3521 -3.82806 -10.1936
upperneck 25.3413 -3.82639 4.62024
head 11.2323 -2.16193 2.85337
rclavicle -1.47349e-014 -3.26007e-014
rhumerus -30.2034 -11.4385 -78.5369
rradius 31.0716
rwrist 7.4752
rhand -12.8076 11.7167
rfingers 7.12502
rthumb 13.2787 -17.8403
lclavicle -1.47349e-014 -3.26007e-014
lhumerus -34.8872 14.1706 81.5359
lradius 22.424
lwrist -13.3733
lhand -13.5718 27.9321
lfingers 7.12502
lthumb 12.5419 57.5356
rfemur -9.22034 0.564324 19.5564
rtibia 63.1233
rfoot 10.5635 -1.17793
rtoes 6.65181
lfemur -12.126 1.12704 -26.8021
ltibia 18.7195
lfoot -4.21119 -2.99383
ltoes 4.12294
107
root 9.95013 17.7006 -13.5431 -1.30193 -7.18113 3.91856
lowerback 5.53775 1.09256 -2.19952
upperback 0.293222 1.3613 1.4982
thorax -2.89116 0.715868 2.67194
lowerneck -15.9696 -3.78391 -10.095
upperneck 25.2629 -3.81865 4.56349
head 11.1228 -2.15953 2.81903
rclavicle 7.50412e-015 1.51076e-014
rhumerus -30.1594 -11.8541 -78.4812
rradius 30.6765
rwrist 7.76387
rhand -12.8862 11.414
rfingers 7.12502
rthumb 13.2029 -18.148
lclavicle 7.50412e-015 1.51076e-014
lhumerus -34.5541 13.7629 81.617
lradius 22.5215
lwrist -13.0095
lhand -13.7381 27.7112
lfingers 7.12502
lthumb 12.3816 57.3245
rfemur -10.408 0.244657 19.4055
rtibia 64.7245
rfoot 9.42782 -2.1674
rtoes 6.53783
lfemur -11.3881 1.09213 -26.9049
ltibia 18.5151
lfoot -4.53246 -2.69846
ltoes 3.82193
108
root 9.94283 17.6979 -13.4182 -1.51633 -7.32846 4.0401
lowerback 5.5811 1.07331 -2.33555
upperback 0.464373 1.32543 1.47667
thorax -2.73909 0.6954 2.73001
lowerneck -16.0418 -3.82697 -9.97562
upperneck 25.3207 -3.8822 4.47044
head 11.1594 -2.18858 2.75527
rclavicle -6.16232e-015 -7.95139e-016
rhumerus -30.043 -12.328 -78.4105
rradius 30.4655
rwrist 8.05348
rhand -13.1636 11.066
rfingers 7.12502
rthumb 12.9355 -18.513
lclavicle -6.16232e-015 -7.95139e-016
lhumerus -33.8625 13.4029 81.7958
lradius 22.4562
lwrist -12.7458
lhand -13.6414 27.5647
lfingers 7.12502
lthumb 12.4748 57.1724
rfemur -11.578 -0.0626804 19.2407
rtibia 66.1287
rfoot 8.30093 -3.30382
rtoes 7.13775
lfemur -10.6177 1.10155 -27.0422
ltibia 18.3822
lfoot -4.95328 -2.50687
ltoes 3.55164
109
root 9.93343 17.7015 -13.2926 -1.55594 -7.43076 4.1863
lowerback 5.58994 1.00311 -2.57482
upperback 0.532255 1.21779 1.51132
thorax -2.67275 0.642876 2.90992
lowerneck -16.3434 -3.75676 -9.9642
upperneck 25.4505 -3.75234 4.4595
head 11.2563 -2.12891 2.76787
rclavicle -8.19987e-015 -3.97569e-015
rhumerus -29.9884 -13.0047 -78.1092
rradius 30.1216
rwrist 8.64532
rhand -13.0184 11.5533
rfingers 7.12502
rthumb 13.0754 -18.0168
lclavicle -8.19987e-015 -3.97569e-015
lhumerus -33.5254 13.2318 81.9707
lradius 22.8219
lwrist -12.5667
lhand -13.652 26.8364
lfingers 7.12502
lthumb 12.4647 56.4447
rfemur -12.8529 -0.329973 19.0877
rtibia 67.3246
rfoot 7.14738 -4.53855
rtoes 7.11081
lfemur -10.0802 1.11128 -27.2124
ltibia 18.2938
lfoot -5.5005 -2.49181
ltoes 2.12999
